<svg xmlns="http://www.w3.org/2000/svg" xmlns:xlink="http://www.w3.org/1999/xlink" width="403" zoomAndPan="magnify" viewBox="0 0 302.25 129.749996" height="173" preserveAspectRatio="xMidYMid meet" version="1.0"><defs><g/><clipPath id="df6d48259e"><path d="M 55 0.0351562 L 73 0.0351562 L 73 34 L 55 34 Z M 55 0.0351562 " clip-rule="nonzero"/></clipPath><clipPath id="ee2774e625"><path d="M 42.445312 78 L 150.925781 78 L 150.925781 129 L 42.445312 129 Z M 42.445312 78 " clip-rule="nonzero"/></clipPath></defs><path fill="#004369" d="M 87.304688 107.316406 C 87.304688 107.316406 86.5625 107.289062 85.175781 107.234375 C 84.800781 107.203125 84.382812 107.164062 83.921875 107.125 C 83.695312 107.105469 83.453125 107.082031 83.203125 107.0625 C 82.949219 107.042969 82.703125 107 82.4375 106.964844 C 81.914062 106.886719 81.347656 106.820312 80.746094 106.71875 C 80.148438 106.605469 79.515625 106.484375 78.84375 106.355469 C 76.175781 105.785156 72.988281 104.796875 69.5625 103.160156 C 66.140625 101.527344 62.515625 99.175781 59.09375 96.023438 C 55.699219 92.847656 52.53125 88.839844 50.144531 84.085938 C 48.949219 81.710938 47.953125 79.164062 47.210938 76.480469 C 46.464844 73.796875 45.980469 70.980469 45.789062 68.105469 C 45.765625 67.746094 45.742188 67.382812 45.722656 67.023438 C 45.707031 66.660156 45.707031 66.296875 45.703125 65.9375 C 45.695312 65.570312 45.691406 65.210938 45.6875 64.84375 L 45.6875 64.671875 L 45.695312 64.539062 L 45.703125 64.277344 L 45.722656 63.75 C 45.738281 63.398438 45.75 63.042969 45.765625 62.691406 C 45.796875 62.320312 45.828125 61.945312 45.859375 61.574219 C 45.894531 61.199219 45.921875 60.824219 45.960938 60.453125 C 46.011719 60.085938 46.0625 59.722656 46.113281 59.355469 C 46.527344 56.421875 47.261719 53.503906 48.3125 50.675781 C 50.414062 45.023438 53.835938 39.796875 58.171875 35.53125 C 62.535156 31.292969 67.808594 28.019531 73.4375 26.070312 C 76.253906 25.101562 79.148438 24.445312 82.035156 24.109375 C 84.925781 23.765625 87.816406 23.742188 90.609375 23.996094 C 96.246094 24.503906 101.519531 26.183594 106.054688 28.617188 C 110.597656 31.050781 114.382812 34.207031 117.347656 37.550781 C 120.296875 40.921875 122.457031 44.453125 123.925781 47.761719 C 125.40625 51.070312 126.269531 54.125 126.75 56.675781 C 127.238281 59.226562 127.347656 61.265625 127.433594 62.648438 C 127.453125 64.035156 127.460938 64.777344 127.460938 64.777344 C 127.460938 64.777344 127.433594 64.039062 127.378906 62.652344 C 127.261719 61.273438 127.097656 59.242188 126.550781 56.71875 C 126.007812 54.195312 125.074219 51.183594 123.53125 47.945312 C 121.996094 44.710938 119.777344 41.285156 116.800781 38.050781 C 113.804688 34.839844 110.027344 31.847656 105.546875 29.597656 C 103.3125 28.46875 100.910156 27.527344 98.382812 26.828125 C 95.863281 26.128906 93.203125 25.671875 90.507812 25.492188 C 87.785156 25.3125 85.019531 25.410156 82.257812 25.804688 C 79.496094 26.199219 76.75 26.894531 74.09375 27.886719 C 68.777344 29.875 63.859375 33.109375 59.847656 37.210938 C 55.855469 41.332031 52.78125 46.316406 50.953125 51.632812 C 50.042969 54.289062 49.429688 57.019531 49.113281 59.746094 C 49.074219 60.085938 49.035156 60.425781 48.996094 60.765625 C 48.96875 61.101562 48.953125 61.4375 48.929688 61.769531 C 48.910156 62.105469 48.890625 62.4375 48.867188 62.769531 C 48.863281 63.121094 48.859375 63.476562 48.855469 63.828125 L 48.847656 64.355469 L 48.84375 64.617188 L 48.84375 64.75 C 48.84375 64.753906 48.839844 64.835938 48.84375 64.777344 L 48.84375 64.839844 C 48.859375 65.175781 48.871094 65.511719 48.882812 65.847656 C 48.898438 66.183594 48.90625 66.519531 48.925781 66.851562 C 48.957031 67.1875 48.984375 67.519531 49.015625 67.847656 C 49.257812 70.5 49.769531 73.074219 50.515625 75.515625 C 51.257812 77.960938 52.226562 80.269531 53.371094 82.410156 C 55.660156 86.691406 58.632812 90.261719 61.777344 93.058594 C 64.949219 95.835938 68.269531 97.871094 71.375 99.253906 C 74.488281 100.644531 77.355469 101.457031 79.75 101.910156 C 80.351562 102.007812 80.921875 102.101562 81.457031 102.191406 C 81.992188 102.265625 82.5 102.3125 82.96875 102.371094 C 83.203125 102.394531 83.433594 102.429688 83.644531 102.4375 C 83.855469 102.453125 84.058594 102.464844 84.25 102.476562 C 84.640625 102.503906 84.992188 102.523438 85.304688 102.546875 C 86.6875 102.566406 87.421875 102.574219 87.421875 102.574219 L 87.429688 102.574219 C 88.738281 102.59375 89.78125 103.671875 89.761719 104.980469 C 89.746094 106.289062 88.671875 107.335938 87.363281 107.316406 C 87.347656 107.316406 87.320312 107.316406 87.304688 107.316406 " fill-opacity="1" fill-rule="nonzero"/><g clip-path="url(#df6d48259e)"><path fill="#004369" d="M 71.578125 0.03125 C 48.429688 10.25 57.859375 33.164062 57.859375 33.164062 C 79.410156 17.398438 71.578125 0.03125 71.578125 0.03125 " fill-opacity="1" fill-rule="nonzero"/></g><path fill="#004369" d="M 101.964844 24.378906 C 122.554688 41.382812 137.40625 29.472656 137.40625 29.472656 C 121.78125 9.542969 101.964844 24.378906 101.964844 24.378906 " fill-opacity="1" fill-rule="nonzero"/><path fill="#004369" d="M 57.210938 47.136719 C 73.753906 50.898438 78.792969 39.878906 78.792969 39.878906 C 64.230469 33.035156 57.210938 47.136719 57.210938 47.136719 " fill-opacity="1" fill-rule="nonzero"/><path fill="#004369" d="M 94.742188 29.160156 C 97.042969 46 109.109375 46.851562 109.109375 46.851562 C 110.390625 30.792969 94.742188 29.160156 94.742188 29.160156 " fill-opacity="1" fill-rule="nonzero"/><g clip-path="url(#ee2774e625)"><path fill="#f1a452" d="M 109.496094 117.457031 C 109.496094 117.457031 103.011719 99.058594 86.804688 97.613281 C 70.59375 96.167969 64.472656 83.902344 61.589844 86.425781 C 58.707031 88.953125 67.507812 97.273438 72.832031 101.773438 C 77.652344 105.84375 51.867188 95.007812 46.644531 80.078125 C 46.070312 78.429688 43.847656 78.179688 42.902344 79.644531 C 42.542969 80.203125 42.464844 80.894531 42.695312 81.515625 C 44.554688 86.535156 54.367188 109.0625 84.640625 122.148438 C 118.859375 136.941406 150.914062 120.707031 150.914062 120.707031 C 150.914062 120.707031 119.21875 125.398438 109.496094 117.457031 " fill-opacity="1" fill-rule="nonzero"/></g><g fill="#000000" fill-opacity="1"><g transform="translate(151.236368, 78.024879)"><g><path d="M 2.125 0 C 3.136719 0 3.902344 -0.285156 4.296875 -0.855469 C 4.667969 -0.308594 5.457031 0 6.46875 0 L 8.046875 0 L 8.046875 -0.546875 C 5.832031 -1.074219 5.457031 -1.425781 5.457031 -2.761719 L 5.457031 -7.015625 L 8.15625 -7.015625 C 11.332031 -7.015625 14.074219 -8.921875 14.074219 -11.246094 C 14.074219 -13.746094 11.792969 -15.476562 8.332031 -15.476562 C 6.027344 -15.476562 4.933594 -15.214844 4.296875 -14.621094 C 3.902344 -15.191406 3.136719 -15.476562 2.125 -15.476562 L 0.503906 -15.476562 L 0.503906 -14.929688 C 3.15625 -14.269531 3.15625 -13.722656 3.15625 -12.714844 L 3.15625 -2.761719 C 3.15625 -1.777344 3.15625 -1.183594 0.480469 -0.546875 L 0.480469 0 Z M 5.457031 -12.519531 C 5.457031 -13.722656 5.722656 -14.644531 7.914062 -14.644531 C 10.171875 -14.644531 11.421875 -13.417969 11.421875 -11.136719 C 11.421875 -9.183594 9.734375 -7.847656 7.210938 -7.847656 L 5.457031 -7.847656 Z M 5.457031 -12.519531 "/></g></g></g><g fill="#000000" fill-opacity="1"><g transform="translate(166.053265, 78.024879)"><g><path d="M 16.769531 -15.476562 C 15.761719 -15.476562 14.972656 -15.171875 14.601562 -14.621094 C 14.226562 -15.171875 13.527344 -15.476562 12.429688 -15.476562 L 11.09375 -15.476562 L 11.09375 -15.0625 C 13.65625 -14.554688 14.03125 -13.679688 14.03125 -11.378906 L 14.03125 -5.195312 C 14.03125 -2.519531 12.34375 -1.03125 9.40625 -1.03125 C 6.554688 -1.03125 5.195312 -2.390625 5.195312 -5.128906 L 5.195312 -11.707031 C 5.195312 -13.175781 5.414062 -14.511719 7.890625 -15.0625 L 7.890625 -15.476562 L 6.226562 -15.476562 C 5.128906 -15.476562 4.382812 -15.125 4.054688 -14.621094 C 3.660156 -15.191406 2.894531 -15.476562 1.886719 -15.476562 L 0.285156 -15.476562 L 0.285156 -15.0625 C 2.214844 -14.601562 2.894531 -13.746094 2.894531 -11.707031 L 2.894531 -5.566406 C 2.894531 -2.390625 3.96875 0.261719 8.921875 0.261719 C 13.023438 0.261719 15.082031 -1.535156 15.082031 -5.128906 L 15.082031 -11.75 C 15.082031 -13.765625 15.804688 -14.621094 17.800781 -15.0625 L 17.800781 -15.476562 Z M 16.769531 -15.476562 "/></g></g></g><g fill="#000000" fill-opacity="1"><g transform="translate(184.136008, 78.024879)"><g><path d="M 13.636719 -4.296875 L 13.085938 -4.296875 C 12.234375 -1.445312 10.917969 -0.875 9.011719 -0.832031 C 6.246094 -0.765625 5.4375 -1.425781 5.4375 -3.046875 L 5.4375 -12.714844 C 5.4375 -14.097656 5.875 -14.402344 8.132812 -14.929688 L 8.132812 -15.476562 L 6.445312 -15.476562 C 5.4375 -15.476562 4.648438 -15.171875 4.273438 -14.621094 C 3.902344 -15.171875 3.179688 -15.476562 2.105469 -15.476562 L 0.527344 -15.476562 L 0.527344 -14.929688 C 2.871094 -14.335938 3.136719 -14.007812 3.136719 -12.714844 L 3.136719 -3.199219 C 3.136719 -1.621094 2.894531 -1.117188 0.503906 -0.546875 L 0.503906 0 L 2.105469 0 C 3.179688 0 3.902344 -0.308594 4.273438 -0.855469 C 4.648438 -0.308594 5.4375 0 6.445312 0 L 11.902344 0 C 12.519531 0 12.824219 0 13.085938 0.417969 L 13.636719 0.417969 L 13.636719 0.175781 C 13.636719 -0.65625 13.328125 -1.140625 12.78125 -1.226562 C 13.351562 -1.710938 13.636719 -2.367188 13.636719 -3.484375 Z M 13.636719 -4.296875 "/></g></g></g><g fill="#000000" fill-opacity="1"><g transform="translate(198.383017, 78.024879)"><g><path d="M 2.125 0 C 3.136719 0 3.902344 -0.285156 4.296875 -0.855469 C 4.667969 -0.308594 5.457031 0 6.46875 0 L 8.046875 0 L 8.046875 -0.546875 C 5.832031 -1.074219 5.457031 -1.425781 5.457031 -2.761719 L 5.457031 -7.015625 L 8.15625 -7.015625 C 11.332031 -7.015625 14.074219 -8.921875 14.074219 -11.246094 C 14.074219 -13.746094 11.792969 -15.476562 8.332031 -15.476562 C 6.027344 -15.476562 4.933594 -15.214844 4.296875 -14.621094 C 3.902344 -15.191406 3.136719 -15.476562 2.125 -15.476562 L 0.503906 -15.476562 L 0.503906 -14.929688 C 3.15625 -14.269531 3.15625 -13.722656 3.15625 -12.714844 L 3.15625 -2.761719 C 3.15625 -1.777344 3.15625 -1.183594 0.480469 -0.546875 L 0.480469 0 Z M 5.457031 -12.519531 C 5.457031 -13.722656 5.722656 -14.644531 7.914062 -14.644531 C 10.171875 -14.644531 11.421875 -13.417969 11.421875 -11.136719 C 11.421875 -9.183594 9.734375 -7.847656 7.210938 -7.847656 L 5.457031 -7.847656 Z M 5.457031 -12.519531 "/></g></g></g><g fill="#000000" fill-opacity="1"><g transform="translate(97.668763, 78.024879)"><g><path d="M 13.480469 0.417969 L 13.480469 0.175781 C 13.480469 -0.679688 13.109375 -1.160156 12.628906 -1.226562 C 13.195312 -1.730469 13.480469 -2.367188 13.480469 -3.484375 L 13.480469 -4.296875 L 12.933594 -4.296875 C 11.992188 -1.183594 10.5 -0.832031 8.636719 -0.832031 C 5.765625 -0.832031 5.394531 -1.839844 5.394531 -3.246094 L 5.394531 -7.671875 L 7.101562 -7.671875 C 8.835938 -7.671875 10.257812 -6.882812 10.480469 -5.171875 L 10.894531 -5.171875 L 10.894531 -5.917969 C 10.894531 -6.863281 10.589844 -7.695312 10.039062 -8.089844 C 10.589844 -8.460938 10.894531 -9.207031 10.894531 -10.257812 L 10.894531 -10.785156 L 10.414062 -10.785156 C 10.347656 -9.339844 8.8125 -8.507812 7.476562 -8.507812 L 5.394531 -8.507812 L 5.394531 -12.648438 C 5.394531 -13.722656 5.589844 -14.6875 8.222656 -14.6875 C 10.5 -14.6875 11.992188 -14.292969 12.933594 -11.179688 L 13.480469 -11.179688 L 13.480469 -12.011719 C 13.480469 -13.109375 13.195312 -13.746094 12.628906 -14.269531 C 13.21875 -14.335938 13.480469 -14.929688 13.480469 -15.652344 L 13.480469 -15.9375 L 12.933594 -15.9375 C 12.648438 -15.476562 12.363281 -15.476562 11.773438 -15.476562 L 7.761719 -15.476562 C 6.027344 -15.476562 5.042969 -15.28125 4.339844 -14.621094 C 3.96875 -15.171875 3.265625 -15.476562 2.171875 -15.476562 L 0.527344 -15.476562 L 0.527344 -14.929688 C 2.652344 -14.730469 3.113281 -14.03125 3.113281 -12.714844 L 3.113281 -2.761719 C 3.113281 -1.46875 2.71875 -0.746094 0.503906 -0.546875 L 0.503906 0 L 2.171875 0 C 3.265625 0 3.96875 -0.308594 4.339844 -0.855469 C 4.867188 -0.308594 5.699219 0 7.433594 0 L 11.773438 0 C 12.363281 0 12.648438 0 12.933594 0.417969 Z M 13.480469 0.417969 "/></g></g></g><g fill="#000000" fill-opacity="1"><g transform="translate(112.354146, 78.024879)"><g><path d="M 15.234375 0.417969 L 15.234375 0.175781 C 15.234375 -0.65625 14.929688 -1.140625 14.382812 -1.226562 C 14.996094 -1.730469 15.234375 -2.410156 15.234375 -3.375 L 15.234375 -4.296875 L 14.6875 -4.296875 C 13.394531 -1.183594 11.859375 -0.679688 9.535156 -0.679688 C 5.765625 -0.679688 3.859375 -4.253906 3.859375 -7.738281 C 3.859375 -11.222656 5.765625 -14.796875 9.535156 -14.796875 C 11.816406 -14.796875 13.394531 -14.292969 14.6875 -11.179688 L 15.234375 -11.179688 L 15.234375 -12.125 C 15.234375 -12.957031 15.0625 -13.65625 14.382812 -14.269531 C 14.886719 -14.316406 15.234375 -14.777344 15.234375 -15.652344 L 15.234375 -15.9375 L 14.6875 -15.9375 C 14.425781 -15.519531 14.183594 -15.390625 13.570312 -15.476562 C 12.539062 -15.628906 11.816406 -15.742188 10.390625 -15.742188 C 3.441406 -15.742188 1.183594 -12.011719 1.183594 -7.738281 C 1.183594 -3.023438 3.441406 0.261719 10.390625 0.261719 C 11.816406 0.261719 12.539062 0.152344 13.570312 0 C 14.207031 -0.0859375 14.425781 0.0429688 14.6875 0.417969 Z M 15.234375 0.417969 "/></g></g></g><g fill="#000000" fill-opacity="1"><g transform="translate(128.771091, 78.024879)"><g><path d="M 9.230469 0.242188 C 14.25 0.242188 17.800781 -3.089844 17.800781 -7.828125 C 17.800781 -12.363281 14.359375 -15.742188 9.644531 -15.742188 C 4.714844 -15.742188 1.074219 -12.40625 1.074219 -7.847656 C 1.074219 -3.15625 4.472656 0.242188 9.230469 0.242188 Z M 9.710938 -0.65625 C 6.269531 -0.65625 3.660156 -4.339844 3.660156 -9.097656 C 3.660156 -12.628906 5.789062 -14.863281 9.316406 -14.863281 C 12.582031 -14.863281 15.214844 -11.070312 15.214844 -6.445312 C 15.214844 -2.871094 13.085938 -0.65625 9.710938 -0.65625 Z M 9.710938 -0.65625 "/></g></g></g><g fill="#000000" fill-opacity="1"><g transform="translate(183.369704, 90.153787)"><g><path d="M 0.484375 0.140625 C 0.597656 -0.0273438 0.652344 -0.0429688 0.9375 0.015625 C 1.257812 0.0820312 1.558594 0.0859375 1.914062 0.0859375 C 3.289062 0.0859375 3.734375 -0.746094 3.734375 -1.394531 C 3.734375 -1.8125 3.558594 -2.121094 3.121094 -2.507812 C 2.582031 -2.980469 1.785156 -3.4375 1.5 -3.71875 C 1.382812 -3.835938 1.242188 -4.042969 1.242188 -4.238281 C 1.242188 -4.511719 1.460938 -4.957031 2.070312 -4.957031 C 2.507812 -4.957031 3.1875 -4.75 3.515625 -3.734375 L 3.699219 -3.734375 L 3.699219 -4.011719 C 3.699219 -4.289062 3.664062 -4.546875 3.414062 -4.765625 C 3.609375 -4.789062 3.699219 -4.984375 3.699219 -5.226562 L 3.699219 -5.3125 L 3.515625 -5.3125 C 3.414062 -5.152344 3.363281 -5.125 3.09375 -5.183594 C 2.886719 -5.226562 2.542969 -5.253906 2.105469 -5.253906 C 1.191406 -5.253906 0.554688 -4.765625 0.554688 -3.984375 C 0.554688 -3.617188 0.679688 -3.382812 1.074219 -3.054688 C 1.460938 -2.734375 2.039062 -2.359375 2.527344 -1.945312 C 2.820312 -1.695312 2.96875 -1.359375 2.96875 -1.066406 C 2.96875 -0.613281 2.675781 -0.203125 2.039062 -0.203125 C 1.433594 -0.203125 1.074219 -0.425781 0.484375 -1.433594 L 0.300781 -1.433594 L 0.300781 -1.25 C 0.300781 -0.832031 0.367188 -0.597656 0.585938 -0.410156 C 0.417969 -0.386719 0.300781 -0.234375 0.300781 0.0585938 L 0.300781 0.140625 Z M 0.484375 0.140625 "/></g></g></g><g fill="#000000" fill-opacity="1"><g transform="translate(187.55823, 90.153787)"><g><path d="M 0.144531 0 C 0.511719 0 0.746094 -0.101562 0.871094 -0.285156 C 0.992188 -0.101562 1.265625 0 1.59375 0 L 1.953125 0 L 1.953125 -0.183594 C 1.550781 -0.191406 1.066406 -0.386719 1.300781 -1.097656 L 1.617188 -2.039062 L 3.609375 -2.039062 L 4.085938 -0.824219 C 4.261719 -0.371094 3.941406 -0.21875 3.550781 -0.183594 L 3.550781 0 L 3.867188 0 C 4.226562 0 4.464844 -0.101562 4.589844 -0.285156 C 4.714844 -0.101562 4.976562 0 5.3125 0 L 5.535156 0 L 5.535156 -0.183594 C 5.117188 -0.308594 5 -0.597656 4.832031 -0.992188 L 3.378906 -4.40625 C 3.265625 -4.664062 3.15625 -4.90625 3.203125 -5.160156 C 2.851562 -5.160156 2.640625 -5 2.542969 -4.875 C 2.417969 -5.058594 2.1875 -5.160156 2.011719 -5.160156 L 1.703125 -5.160156 L 1.703125 -4.976562 C 2.113281 -4.941406 2.265625 -4.664062 2.097656 -4.246094 L 0.882812 -1.207031 C 0.59375 -0.476562 0.410156 -0.25 0.0859375 -0.183594 L 0.0859375 0 Z M 2.59375 -4.480469 L 3.449219 -2.398438 L 1.746094 -2.398438 Z M 2.59375 -4.480469 "/></g></g></g><g fill="#000000" fill-opacity="1"><g transform="translate(193.186787, 90.153787)"><g><path d="M 3.003906 0.0820312 L 4.96875 -4.480469 C 5.082031 -4.730469 5.261719 -4.949219 5.613281 -4.976562 L 5.613281 -5.160156 L 5.429688 -5.160156 C 5.09375 -5.160156 4.832031 -5.058594 4.707031 -4.875 C 4.582031 -5.058594 4.328125 -5.160156 3.984375 -5.160156 L 3.707031 -5.160156 L 3.707031 -4.976562 C 4.1875 -4.875 4.453125 -4.714844 4.453125 -4.347656 C 4.453125 -4.253906 4.414062 -4.035156 4.3125 -3.800781 L 3.078125 -0.929688 L 1.652344 -3.976562 C 1.558594 -4.179688 1.503906 -4.355469 1.503906 -4.480469 C 1.503906 -4.800781 1.769531 -4.957031 2.191406 -4.976562 L 2.191406 -5.160156 L 1.738281 -5.160156 C 1.410156 -5.160156 1.140625 -5.058594 1.015625 -4.875 C 0.890625 -5.058594 0.652344 -5.160156 0.292969 -5.160156 L 0.0859375 -5.160156 L 0.0859375 -4.976562 C 0.488281 -4.875 0.546875 -4.707031 0.644531 -4.503906 L 2.800781 0.0820312 Z M 3.003906 0.0820312 "/></g></g></g><g fill="#000000" fill-opacity="1"><g transform="translate(198.888438, 90.153787)"><g><path d="M 4.496094 0.140625 L 4.496094 0.0585938 C 4.496094 -0.226562 4.371094 -0.386719 4.210938 -0.410156 C 4.402344 -0.578125 4.496094 -0.789062 4.496094 -1.164062 L 4.496094 -1.433594 L 4.3125 -1.433594 C 4 -0.394531 3.5 -0.277344 2.878906 -0.277344 C 1.921875 -0.277344 1.796875 -0.613281 1.796875 -1.082031 L 1.796875 -2.558594 L 2.367188 -2.558594 C 2.945312 -2.558594 3.421875 -2.296875 3.492188 -1.726562 L 3.632812 -1.726562 L 3.632812 -1.972656 C 3.632812 -2.289062 3.53125 -2.566406 3.347656 -2.699219 C 3.53125 -2.820312 3.632812 -3.070312 3.632812 -3.421875 L 3.632812 -3.597656 L 3.472656 -3.597656 C 3.449219 -3.113281 2.9375 -2.835938 2.492188 -2.835938 L 1.796875 -2.835938 L 1.796875 -4.21875 C 1.796875 -4.574219 1.863281 -4.898438 2.742188 -4.898438 C 3.5 -4.898438 4 -4.765625 4.3125 -3.726562 L 4.496094 -3.726562 L 4.496094 -4.003906 C 4.496094 -4.371094 4.402344 -4.582031 4.210938 -4.757812 C 4.40625 -4.78125 4.496094 -4.976562 4.496094 -5.21875 L 4.496094 -5.3125 L 4.3125 -5.3125 C 4.21875 -5.160156 4.121094 -5.160156 3.925781 -5.160156 L 2.585938 -5.160156 C 2.011719 -5.160156 1.679688 -5.09375 1.449219 -4.875 C 1.324219 -5.058594 1.089844 -5.160156 0.722656 -5.160156 L 0.175781 -5.160156 L 0.175781 -4.976562 C 0.882812 -4.914062 1.039062 -4.679688 1.039062 -4.238281 L 1.039062 -0.921875 C 1.039062 -0.488281 0.90625 -0.25 0.167969 -0.183594 L 0.167969 0 L 0.722656 0 C 1.089844 0 1.324219 -0.101562 1.449219 -0.285156 C 1.621094 -0.101562 1.902344 0 2.476562 0 L 3.925781 0 C 4.121094 0 4.21875 0 4.3125 0.140625 Z M 4.496094 0.140625 "/></g></g></g><g fill="#000000" fill-opacity="1"><g transform="translate(203.786012, 90.153787)"><g/></g></g><g fill="#000000" fill-opacity="1"><g transform="translate(205.978953, 90.153787)"><g><path d="M 0.710938 0 C 1.046875 0 1.300781 -0.09375 1.433594 -0.285156 C 1.558594 -0.101562 1.820312 0 2.15625 0 L 2.683594 0 L 2.683594 -0.183594 C 1.945312 -0.359375 1.820312 -0.476562 1.820312 -0.921875 L 1.820312 -2.339844 L 2.71875 -2.339844 C 3.777344 -2.339844 4.691406 -2.976562 4.691406 -3.75 C 4.691406 -4.582031 3.933594 -5.160156 2.777344 -5.160156 C 2.011719 -5.160156 1.644531 -5.074219 1.433594 -4.875 C 1.300781 -5.066406 1.046875 -5.160156 0.710938 -5.160156 L 0.167969 -5.160156 L 0.167969 -4.976562 C 1.050781 -4.757812 1.050781 -4.574219 1.050781 -4.238281 L 1.050781 -0.921875 C 1.050781 -0.59375 1.050781 -0.394531 0.160156 -0.183594 L 0.160156 0 Z M 1.820312 -4.175781 C 1.820312 -4.574219 1.90625 -4.882812 2.640625 -4.882812 C 3.390625 -4.882812 3.808594 -4.472656 3.808594 -3.714844 C 3.808594 -3.0625 3.246094 -2.617188 2.40625 -2.617188 L 1.820312 -2.617188 Z M 1.820312 -4.175781 "/></g></g></g><g fill="#000000" fill-opacity="1"><g transform="translate(210.920389, 90.153787)"><g><path d="M 0.144531 0 C 0.511719 0 0.746094 -0.101562 0.871094 -0.285156 C 0.992188 -0.101562 1.265625 0 1.59375 0 L 1.953125 0 L 1.953125 -0.183594 C 1.550781 -0.191406 1.066406 -0.386719 1.300781 -1.097656 L 1.617188 -2.039062 L 3.609375 -2.039062 L 4.085938 -0.824219 C 4.261719 -0.371094 3.941406 -0.21875 3.550781 -0.183594 L 3.550781 0 L 3.867188 0 C 4.226562 0 4.464844 -0.101562 4.589844 -0.285156 C 4.714844 -0.101562 4.976562 0 5.3125 0 L 5.535156 0 L 5.535156 -0.183594 C 5.117188 -0.308594 5 -0.597656 4.832031 -0.992188 L 3.378906 -4.40625 C 3.265625 -4.664062 3.15625 -4.90625 3.203125 -5.160156 C 2.851562 -5.160156 2.640625 -5 2.542969 -4.875 C 2.417969 -5.058594 2.1875 -5.160156 2.011719 -5.160156 L 1.703125 -5.160156 L 1.703125 -4.976562 C 2.113281 -4.941406 2.265625 -4.664062 2.097656 -4.246094 L 0.882812 -1.207031 C 0.59375 -0.476562 0.410156 -0.25 0.0859375 -0.183594 L 0.0859375 0 Z M 2.59375 -4.480469 L 3.449219 -2.398438 L 1.746094 -2.398438 Z M 2.59375 -4.480469 "/></g></g></g><g fill="#000000" fill-opacity="1"><g transform="translate(216.548946, 90.153787)"><g><path d="M 0.710938 0 C 1.046875 0 1.300781 -0.09375 1.433594 -0.285156 C 1.558594 -0.101562 1.820312 0 2.15625 0 L 2.683594 0 L 2.683594 -0.183594 C 1.945312 -0.359375 1.820312 -0.476562 1.820312 -0.921875 L 1.820312 -2.339844 L 2.71875 -2.339844 C 3.777344 -2.339844 4.691406 -2.976562 4.691406 -3.75 C 4.691406 -4.582031 3.933594 -5.160156 2.777344 -5.160156 C 2.011719 -5.160156 1.644531 -5.074219 1.433594 -4.875 C 1.300781 -5.066406 1.046875 -5.160156 0.710938 -5.160156 L 0.167969 -5.160156 L 0.167969 -4.976562 C 1.050781 -4.757812 1.050781 -4.574219 1.050781 -4.238281 L 1.050781 -0.921875 C 1.050781 -0.59375 1.050781 -0.394531 0.160156 -0.183594 L 0.160156 0 Z M 1.820312 -4.175781 C 1.820312 -4.574219 1.90625 -4.882812 2.640625 -4.882812 C 3.390625 -4.882812 3.808594 -4.472656 3.808594 -3.714844 C 3.808594 -3.0625 3.246094 -2.617188 2.40625 -2.617188 L 1.820312 -2.617188 Z M 1.820312 -4.175781 "/></g></g></g><g fill="#000000" fill-opacity="1"><g transform="translate(221.490381, 90.153787)"><g><path d="M 4.496094 0.140625 L 4.496094 0.0585938 C 4.496094 -0.226562 4.371094 -0.386719 4.210938 -0.410156 C 4.402344 -0.578125 4.496094 -0.789062 4.496094 -1.164062 L 4.496094 -1.433594 L 4.3125 -1.433594 C 4 -0.394531 3.5 -0.277344 2.878906 -0.277344 C 1.921875 -0.277344 1.796875 -0.613281 1.796875 -1.082031 L 1.796875 -2.558594 L 2.367188 -2.558594 C 2.945312 -2.558594 3.421875 -2.296875 3.492188 -1.726562 L 3.632812 -1.726562 L 3.632812 -1.972656 C 3.632812 -2.289062 3.53125 -2.566406 3.347656 -2.699219 C 3.53125 -2.820312 3.632812 -3.070312 3.632812 -3.421875 L 3.632812 -3.597656 L 3.472656 -3.597656 C 3.449219 -3.113281 2.9375 -2.835938 2.492188 -2.835938 L 1.796875 -2.835938 L 1.796875 -4.21875 C 1.796875 -4.574219 1.863281 -4.898438 2.742188 -4.898438 C 3.5 -4.898438 4 -4.765625 4.3125 -3.726562 L 4.496094 -3.726562 L 4.496094 -4.003906 C 4.496094 -4.371094 4.402344 -4.582031 4.210938 -4.757812 C 4.40625 -4.78125 4.496094 -4.976562 4.496094 -5.21875 L 4.496094 -5.3125 L 4.3125 -5.3125 C 4.21875 -5.160156 4.121094 -5.160156 3.925781 -5.160156 L 2.585938 -5.160156 C 2.011719 -5.160156 1.679688 -5.09375 1.449219 -4.875 C 1.324219 -5.058594 1.089844 -5.160156 0.722656 -5.160156 L 0.175781 -5.160156 L 0.175781 -4.976562 C 0.882812 -4.914062 1.039062 -4.679688 1.039062 -4.238281 L 1.039062 -0.921875 C 1.039062 -0.488281 0.90625 -0.25 0.167969 -0.183594 L 0.167969 0 L 0.722656 0 C 1.089844 0 1.324219 -0.101562 1.449219 -0.285156 C 1.621094 -0.101562 1.902344 0 2.476562 0 L 3.925781 0 C 4.121094 0 4.21875 0 4.3125 0.140625 Z M 4.496094 0.140625 "/></g></g></g><g fill="#000000" fill-opacity="1"><g transform="translate(226.387955, 90.153787)"><g><path d="M 0.703125 0 C 1.058594 0 1.300781 -0.101562 1.425781 -0.285156 C 1.550781 -0.101562 1.8125 0 2.148438 0 L 2.691406 0 L 2.691406 -0.183594 C 1.894531 -0.378906 1.8125 -0.488281 1.8125 -1.023438 L 1.8125 -2.484375 L 1.828125 -2.484375 C 2.71875 -2.484375 3.992188 -0.714844 4.230469 0 L 4.363281 0 C 4.605469 0 4.773438 -0.0585938 4.773438 -0.285156 C 4.976562 -0.101562 5.277344 0 5.570312 0 L 5.644531 0 L 5.644531 -0.183594 C 4.445312 -0.753906 4.042969 -2.265625 2.808594 -2.535156 L 2.808594 -2.550781 C 3.707031 -2.582031 4.742188 -2.96875 4.742188 -3.851562 C 4.742188 -4.816406 3.816406 -5.160156 2.726562 -5.160156 C 2.039062 -5.160156 1.621094 -5.058594 1.425781 -4.875 C 1.300781 -5.058594 1.066406 -5.160156 0.703125 -5.160156 L 0.167969 -5.160156 L 0.167969 -4.976562 C 0.9375 -4.789062 1.03125 -4.679688 1.03125 -4.238281 L 1.03125 -1.023438 C 1.03125 -0.46875 0.898438 -0.367188 0.152344 -0.183594 L 0.152344 0 Z M 1.8125 -4.195312 C 1.8125 -4.632812 1.835938 -4.898438 2.558594 -4.898438 C 3.4375 -4.898438 3.851562 -4.40625 3.851562 -3.714844 C 3.851562 -3.070312 3.332031 -2.777344 2.433594 -2.777344 L 1.8125 -2.777344 Z M 1.8125 -4.195312 "/></g></g></g><g fill="#000000" fill-opacity="1"><g transform="translate(232.140774, 90.153787)"><g><path d="M -0.0507812 1.164062 C 0.855469 1.164062 1.535156 0.714844 1.535156 -0.203125 C 1.535156 -0.621094 1.273438 -1.226562 0.710938 -1.226562 C 0.425781 -1.226562 0.199219 -1.039062 0.199219 -0.765625 C 0.199219 -0.570312 0.359375 -0.328125 0.730469 -0.328125 C 0.929688 -0.328125 1.074219 -0.25 1.074219 0.0585938 C 1.074219 0.644531 0.585938 0.941406 -0.0507812 1.015625 Z M -0.0507812 1.164062 "/></g></g></g><g fill="#000000" fill-opacity="1"><g transform="translate(233.938406, 90.153787)"><g/></g></g><g fill="#000000" fill-opacity="1"><g transform="translate(192.421245, 99.900136)"><g><path d="M 0.484375 0.140625 C 0.597656 -0.0273438 0.652344 -0.0429688 0.9375 0.015625 C 1.257812 0.0820312 1.558594 0.0859375 1.914062 0.0859375 C 3.289062 0.0859375 3.734375 -0.746094 3.734375 -1.394531 C 3.734375 -1.8125 3.558594 -2.121094 3.121094 -2.507812 C 2.582031 -2.980469 1.785156 -3.4375 1.5 -3.71875 C 1.382812 -3.835938 1.242188 -4.042969 1.242188 -4.238281 C 1.242188 -4.511719 1.460938 -4.957031 2.070312 -4.957031 C 2.507812 -4.957031 3.1875 -4.75 3.515625 -3.734375 L 3.699219 -3.734375 L 3.699219 -4.011719 C 3.699219 -4.289062 3.664062 -4.546875 3.414062 -4.765625 C 3.609375 -4.789062 3.699219 -4.984375 3.699219 -5.226562 L 3.699219 -5.3125 L 3.515625 -5.3125 C 3.414062 -5.152344 3.363281 -5.125 3.09375 -5.183594 C 2.886719 -5.226562 2.542969 -5.253906 2.105469 -5.253906 C 1.191406 -5.253906 0.554688 -4.765625 0.554688 -3.984375 C 0.554688 -3.617188 0.679688 -3.382812 1.074219 -3.054688 C 1.460938 -2.734375 2.039062 -2.359375 2.527344 -1.945312 C 2.820312 -1.695312 2.96875 -1.359375 2.96875 -1.066406 C 2.96875 -0.613281 2.675781 -0.203125 2.039062 -0.203125 C 1.433594 -0.203125 1.074219 -0.425781 0.484375 -1.433594 L 0.300781 -1.433594 L 0.300781 -1.25 C 0.300781 -0.832031 0.367188 -0.597656 0.585938 -0.410156 C 0.417969 -0.386719 0.300781 -0.234375 0.300781 0.0585938 L 0.300781 0.140625 Z M 0.484375 0.140625 "/></g></g></g><g fill="#000000" fill-opacity="1"><g transform="translate(196.60977, 99.900136)"><g><path d="M 0.144531 0 C 0.511719 0 0.746094 -0.101562 0.871094 -0.285156 C 0.992188 -0.101562 1.265625 0 1.59375 0 L 1.953125 0 L 1.953125 -0.183594 C 1.550781 -0.191406 1.066406 -0.386719 1.300781 -1.097656 L 1.617188 -2.039062 L 3.609375 -2.039062 L 4.085938 -0.824219 C 4.261719 -0.371094 3.941406 -0.21875 3.550781 -0.183594 L 3.550781 0 L 3.867188 0 C 4.226562 0 4.464844 -0.101562 4.589844 -0.285156 C 4.714844 -0.101562 4.976562 0 5.3125 0 L 5.535156 0 L 5.535156 -0.183594 C 5.117188 -0.308594 5 -0.597656 4.832031 -0.992188 L 3.378906 -4.40625 C 3.265625 -4.664062 3.15625 -4.90625 3.203125 -5.160156 C 2.851562 -5.160156 2.640625 -5 2.542969 -4.875 C 2.417969 -5.058594 2.1875 -5.160156 2.011719 -5.160156 L 1.703125 -5.160156 L 1.703125 -4.976562 C 2.113281 -4.941406 2.265625 -4.664062 2.097656 -4.246094 L 0.882812 -1.207031 C 0.59375 -0.476562 0.410156 -0.25 0.0859375 -0.183594 L 0.0859375 0 Z M 2.59375 -4.480469 L 3.449219 -2.398438 L 1.746094 -2.398438 Z M 2.59375 -4.480469 "/></g></g></g><g fill="#000000" fill-opacity="1"><g transform="translate(202.238327, 99.900136)"><g><path d="M 3.003906 0.0820312 L 4.96875 -4.480469 C 5.082031 -4.730469 5.261719 -4.949219 5.613281 -4.976562 L 5.613281 -5.160156 L 5.429688 -5.160156 C 5.09375 -5.160156 4.832031 -5.058594 4.707031 -4.875 C 4.582031 -5.058594 4.328125 -5.160156 3.984375 -5.160156 L 3.707031 -5.160156 L 3.707031 -4.976562 C 4.1875 -4.875 4.453125 -4.714844 4.453125 -4.347656 C 4.453125 -4.253906 4.414062 -4.035156 4.3125 -3.800781 L 3.078125 -0.929688 L 1.652344 -3.976562 C 1.558594 -4.179688 1.503906 -4.355469 1.503906 -4.480469 C 1.503906 -4.800781 1.769531 -4.957031 2.191406 -4.976562 L 2.191406 -5.160156 L 1.738281 -5.160156 C 1.410156 -5.160156 1.140625 -5.058594 1.015625 -4.875 C 0.890625 -5.058594 0.652344 -5.160156 0.292969 -5.160156 L 0.0859375 -5.160156 L 0.0859375 -4.976562 C 0.488281 -4.875 0.546875 -4.707031 0.644531 -4.503906 L 2.800781 0.0820312 Z M 3.003906 0.0820312 "/></g></g></g><g fill="#000000" fill-opacity="1"><g transform="translate(207.939979, 99.900136)"><g><path d="M 4.496094 0.140625 L 4.496094 0.0585938 C 4.496094 -0.226562 4.371094 -0.386719 4.210938 -0.410156 C 4.402344 -0.578125 4.496094 -0.789062 4.496094 -1.164062 L 4.496094 -1.433594 L 4.3125 -1.433594 C 4 -0.394531 3.5 -0.277344 2.878906 -0.277344 C 1.921875 -0.277344 1.796875 -0.613281 1.796875 -1.082031 L 1.796875 -2.558594 L 2.367188 -2.558594 C 2.945312 -2.558594 3.421875 -2.296875 3.492188 -1.726562 L 3.632812 -1.726562 L 3.632812 -1.972656 C 3.632812 -2.289062 3.53125 -2.566406 3.347656 -2.699219 C 3.53125 -2.820312 3.632812 -3.070312 3.632812 -3.421875 L 3.632812 -3.597656 L 3.472656 -3.597656 C 3.449219 -3.113281 2.9375 -2.835938 2.492188 -2.835938 L 1.796875 -2.835938 L 1.796875 -4.21875 C 1.796875 -4.574219 1.863281 -4.898438 2.742188 -4.898438 C 3.5 -4.898438 4 -4.765625 4.3125 -3.726562 L 4.496094 -3.726562 L 4.496094 -4.003906 C 4.496094 -4.371094 4.402344 -4.582031 4.210938 -4.757812 C 4.40625 -4.78125 4.496094 -4.976562 4.496094 -5.21875 L 4.496094 -5.3125 L 4.3125 -5.3125 C 4.21875 -5.160156 4.121094 -5.160156 3.925781 -5.160156 L 2.585938 -5.160156 C 2.011719 -5.160156 1.679688 -5.09375 1.449219 -4.875 C 1.324219 -5.058594 1.089844 -5.160156 0.722656 -5.160156 L 0.175781 -5.160156 L 0.175781 -4.976562 C 0.882812 -4.914062 1.039062 -4.679688 1.039062 -4.238281 L 1.039062 -0.921875 C 1.039062 -0.488281 0.90625 -0.25 0.167969 -0.183594 L 0.167969 0 L 0.722656 0 C 1.089844 0 1.324219 -0.101562 1.449219 -0.285156 C 1.621094 -0.101562 1.902344 0 2.476562 0 L 3.925781 0 C 4.121094 0 4.21875 0 4.3125 0.140625 Z M 4.496094 0.140625 "/></g></g></g><g fill="#000000" fill-opacity="1"><g transform="translate(212.837552, 99.900136)"><g/></g></g><g fill="#000000" fill-opacity="1"><g transform="translate(215.030494, 99.900136)"><g><path d="M 2.054688 0 C 2.414062 0 2.652344 -0.101562 2.777344 -0.285156 C 2.902344 -0.101562 3.179688 0 3.5 0 L 4.203125 0 L 4.203125 -0.132812 C 3.164062 -0.320312 3.171875 -0.539062 3.171875 -0.921875 L 3.171875 -4 C 3.171875 -4.320312 3.195312 -4.90625 4.011719 -4.90625 C 4.34375 -4.90625 4.882812 -4.773438 5.167969 -3.726562 L 5.351562 -3.726562 L 5.351562 -4.003906 C 5.351562 -4.277344 5.3125 -4.539062 5.066406 -4.757812 C 5.25 -4.78125 5.351562 -4.949219 5.351562 -5.21875 L 5.351562 -5.3125 L 5.167969 -5.3125 C 5.082031 -5.160156 4.976562 -5.160156 4.78125 -5.160156 L 0.773438 -5.160156 C 0.578125 -5.160156 0.476562 -5.160156 0.386719 -5.3125 L 0.203125 -5.3125 L 0.203125 -5.21875 C 0.203125 -4.949219 0.308594 -4.78125 0.488281 -4.757812 C 0.242188 -4.539062 0.203125 -4.277344 0.203125 -4.003906 L 0.203125 -3.726562 L 0.386719 -3.726562 C 0.671875 -4.773438 1.214844 -4.90625 1.542969 -4.90625 C 2.359375 -4.90625 2.382812 -4.320312 2.382812 -4 L 2.382812 -0.921875 C 2.382812 -0.503906 2.347656 -0.320312 1.351562 -0.132812 L 1.351562 0 Z M 2.054688 0 "/></g></g></g><g fill="#000000" fill-opacity="1"><g transform="translate(220.585956, 99.900136)"><g><path d="M 0.703125 0 C 1.058594 0 1.300781 -0.101562 1.425781 -0.285156 C 1.550781 -0.101562 1.8125 0 2.148438 0 L 2.691406 0 L 2.691406 -0.183594 C 1.894531 -0.378906 1.8125 -0.488281 1.8125 -1.023438 L 1.8125 -2.484375 L 1.828125 -2.484375 C 2.71875 -2.484375 3.992188 -0.714844 4.230469 0 L 4.363281 0 C 4.605469 0 4.773438 -0.0585938 4.773438 -0.285156 C 4.976562 -0.101562 5.277344 0 5.570312 0 L 5.644531 0 L 5.644531 -0.183594 C 4.445312 -0.753906 4.042969 -2.265625 2.808594 -2.535156 L 2.808594 -2.550781 C 3.707031 -2.582031 4.742188 -2.96875 4.742188 -3.851562 C 4.742188 -4.816406 3.816406 -5.160156 2.726562 -5.160156 C 2.039062 -5.160156 1.621094 -5.058594 1.425781 -4.875 C 1.300781 -5.058594 1.066406 -5.160156 0.703125 -5.160156 L 0.167969 -5.160156 L 0.167969 -4.976562 C 0.9375 -4.789062 1.03125 -4.679688 1.03125 -4.238281 L 1.03125 -1.023438 C 1.03125 -0.46875 0.898438 -0.367188 0.152344 -0.183594 L 0.152344 0 Z M 1.8125 -4.195312 C 1.8125 -4.632812 1.835938 -4.898438 2.558594 -4.898438 C 3.4375 -4.898438 3.851562 -4.40625 3.851562 -3.714844 C 3.851562 -3.070312 3.332031 -2.777344 2.433594 -2.777344 L 1.8125 -2.777344 Z M 1.8125 -4.195312 "/></g></g></g><g fill="#000000" fill-opacity="1"><g transform="translate(226.338776, 99.900136)"><g><path d="M 4.496094 0.140625 L 4.496094 0.0585938 C 4.496094 -0.226562 4.371094 -0.386719 4.210938 -0.410156 C 4.402344 -0.578125 4.496094 -0.789062 4.496094 -1.164062 L 4.496094 -1.433594 L 4.3125 -1.433594 C 4 -0.394531 3.5 -0.277344 2.878906 -0.277344 C 1.921875 -0.277344 1.796875 -0.613281 1.796875 -1.082031 L 1.796875 -2.558594 L 2.367188 -2.558594 C 2.945312 -2.558594 3.421875 -2.296875 3.492188 -1.726562 L 3.632812 -1.726562 L 3.632812 -1.972656 C 3.632812 -2.289062 3.53125 -2.566406 3.347656 -2.699219 C 3.53125 -2.820312 3.632812 -3.070312 3.632812 -3.421875 L 3.632812 -3.597656 L 3.472656 -3.597656 C 3.449219 -3.113281 2.9375 -2.835938 2.492188 -2.835938 L 1.796875 -2.835938 L 1.796875 -4.21875 C 1.796875 -4.574219 1.863281 -4.898438 2.742188 -4.898438 C 3.5 -4.898438 4 -4.765625 4.3125 -3.726562 L 4.496094 -3.726562 L 4.496094 -4.003906 C 4.496094 -4.371094 4.402344 -4.582031 4.210938 -4.757812 C 4.40625 -4.78125 4.496094 -4.976562 4.496094 -5.21875 L 4.496094 -5.3125 L 4.3125 -5.3125 C 4.21875 -5.160156 4.121094 -5.160156 3.925781 -5.160156 L 2.585938 -5.160156 C 2.011719 -5.160156 1.679688 -5.09375 1.449219 -4.875 C 1.324219 -5.058594 1.089844 -5.160156 0.722656 -5.160156 L 0.175781 -5.160156 L 0.175781 -4.976562 C 0.882812 -4.914062 1.039062 -4.679688 1.039062 -4.238281 L 1.039062 -0.921875 C 1.039062 -0.488281 0.90625 -0.25 0.167969 -0.183594 L 0.167969 0 L 0.722656 0 C 1.089844 0 1.324219 -0.101562 1.449219 -0.285156 C 1.621094 -0.101562 1.902344 0 2.476562 0 L 3.925781 0 C 4.121094 0 4.21875 0 4.3125 0.140625 Z M 4.496094 0.140625 "/></g></g></g><g fill="#000000" fill-opacity="1"><g transform="translate(231.236349, 99.900136)"><g><path d="M 4.496094 0.140625 L 4.496094 0.0585938 C 4.496094 -0.226562 4.371094 -0.386719 4.210938 -0.410156 C 4.402344 -0.578125 4.496094 -0.789062 4.496094 -1.164062 L 4.496094 -1.433594 L 4.3125 -1.433594 C 4 -0.394531 3.5 -0.277344 2.878906 -0.277344 C 1.921875 -0.277344 1.796875 -0.613281 1.796875 -1.082031 L 1.796875 -2.558594 L 2.367188 -2.558594 C 2.945312 -2.558594 3.421875 -2.296875 3.492188 -1.726562 L 3.632812 -1.726562 L 3.632812 -1.972656 C 3.632812 -2.289062 3.53125 -2.566406 3.347656 -2.699219 C 3.53125 -2.820312 3.632812 -3.070312 3.632812 -3.421875 L 3.632812 -3.597656 L 3.472656 -3.597656 C 3.449219 -3.113281 2.9375 -2.835938 2.492188 -2.835938 L 1.796875 -2.835938 L 1.796875 -4.21875 C 1.796875 -4.574219 1.863281 -4.898438 2.742188 -4.898438 C 3.5 -4.898438 4 -4.765625 4.3125 -3.726562 L 4.496094 -3.726562 L 4.496094 -4.003906 C 4.496094 -4.371094 4.402344 -4.582031 4.210938 -4.757812 C 4.40625 -4.78125 4.496094 -4.976562 4.496094 -5.21875 L 4.496094 -5.3125 L 4.3125 -5.3125 C 4.21875 -5.160156 4.121094 -5.160156 3.925781 -5.160156 L 2.585938 -5.160156 C 2.011719 -5.160156 1.679688 -5.09375 1.449219 -4.875 C 1.324219 -5.058594 1.089844 -5.160156 0.722656 -5.160156 L 0.175781 -5.160156 L 0.175781 -4.976562 C 0.882812 -4.914062 1.039062 -4.679688 1.039062 -4.238281 L 1.039062 -0.921875 C 1.039062 -0.488281 0.90625 -0.25 0.167969 -0.183594 L 0.167969 0 L 0.722656 0 C 1.089844 0 1.324219 -0.101562 1.449219 -0.285156 C 1.621094 -0.101562 1.902344 0 2.476562 0 L 3.925781 0 C 4.121094 0 4.21875 0 4.3125 0.140625 Z M 4.496094 0.140625 "/></g></g></g></svg>